<?xml version="1.0" standalone="no"?>
<!DOCTYPE svg PUBLIC "-//W3C//DTD SVG 20010904//EN"
 "http://www.w3.org/TR/2001/REC-SVG-20010904/DTD/svg10.dtd">
<svg version="1.0" xmlns="http://www.w3.org/2000/svg"
 width="1272.000000pt" height="21.000000pt" viewBox="0 0 1272.000000 21.000000"
 preserveAspectRatio="xMidYMid meet">

<g transform="translate(0.000000,21.000000) scale(0.100000,-0.100000)"
fill="#000000" stroke="none">
<path d="M91 154 c-24 -30 -26 -43 -10 -78 28 -61 120 -51 134 15 16 72 -79
121 -124 63z"/>
<path d="M361 154 c-12 -15 -21 -35 -21 -46 0 -79 110 -101 140 -29 31 76 -69
139 -119 75z"/>
<path d="M632 157 c-63 -67 30 -163 98 -102 29 26 27 89 -2 109 -32 23 -71 20
-96 -7z"/>
<path d="M901 154 c-24 -30 -26 -43 -10 -78 17 -37 60 -51 97 -32 47 24 55 66
21 110 -28 36 -80 36 -108 0z"/>
<path d="M1171 154 c-12 -15 -21 -35 -21 -46 0 -79 110 -101 140 -29 31 76
-69 139 -119 75z"/>
<path d="M1442 157 c-63 -67 30 -163 98 -102 29 26 27 89 -2 109 -32 23 -71
20 -96 -7z"/>
<path d="M1711 154 c-24 -30 -26 -43 -10 -78 17 -37 60 -51 97 -32 47 24 55
66 21 110 -28 36 -80 36 -108 0z"/>
<path d="M1981 154 c-35 -44 -23 -96 26 -115 35 -13 77 4 92 37 16 37 14 52
-14 79 -33 34 -77 33 -104 -1z"/>
<path d="M2252 157 c-55 -58 1 -142 78 -116 47 17 58 87 18 122 -28 24 -70 21
-96 -6z"/>
<path d="M2525 155 c-28 -27 -30 -42 -14 -79 15 -33 57 -50 92 -37 49 19 61
71 26 115 -27 34 -71 35 -104 1z"/>
<path d="M2791 154 c-34 -44 -26 -86 21 -110 37 -19 80 -5 97 32 16 35 14 48
-10 78 -28 36 -80 36 -108 0z"/>
<path d="M3062 157 c-55 -58 1 -142 77 -116 54 19 61 102 12 128 -32 17 -66
13 -89 -12z"/>
<path d="M3347 169 c-28 -16 -40 -58 -27 -90 22 -53 103 -59 129 -10 36 67
-37 138 -102 100z"/>
<path d="M3601 154 c-34 -44 -26 -86 21 -110 37 -19 80 -5 97 32 16 35 14 48
-10 78 -28 36 -80 36 -108 0z"/>
<path d="M3872 157 c-55 -58 1 -142 77 -116 37 13 56 55 42 92 -19 50 -83 63
-119 24z"/>
<path d="M4157 169 c-28 -16 -40 -58 -27 -90 22 -52 104 -58 129 -10 36 67
-37 138 -102 100z"/>
<path d="M4411 154 c-24 -30 -26 -43 -10 -78 28 -61 120 -51 134 15 16 72 -79
121 -124 63z"/>
<path d="M4681 154 c-12 -15 -21 -35 -21 -46 0 -79 110 -101 140 -29 31 76
-69 139 -119 75z"/>
<path d="M4967 169 c-27 -16 -38 -53 -26 -88 19 -54 102 -61 128 -12 37 67
-36 138 -102 100z"/>
<path d="M5221 154 c-24 -30 -26 -43 -10 -78 17 -37 60 -51 97 -32 47 24 55
66 21 110 -28 36 -80 36 -108 0z"/>
<path d="M5491 154 c-12 -15 -21 -35 -21 -46 0 -79 110 -101 140 -29 31 76
-69 139 -119 75z"/>
<path d="M5777 169 c-27 -16 -38 -53 -26 -88 19 -54 102 -61 128 -12 37 67
-36 138 -102 100z"/>
<path d="M6031 154 c-24 -30 -26 -43 -10 -78 17 -37 60 -51 97 -32 47 24 55
66 21 110 -28 36 -80 36 -108 0z"/>
<path d="M6301 154 c-34 -44 -26 -86 21 -110 37 -19 80 -5 97 32 16 35 14 48
-10 78 -28 36 -80 36 -108 0z"/>
<path d="M6582 164 c-16 -11 -22 -25 -22 -52 0 -45 8 -58 43 -71 73 -28 131
63 74 117 -27 26 -64 28 -95 6z"/>
<path d="M6845 155 c-28 -27 -30 -42 -14 -79 15 -33 57 -50 92 -37 49 19 61
71 26 115 -27 34 -71 35 -104 1z"/>
<path d="M7111 154 c-34 -44 -26 -86 21 -110 37 -19 80 -5 97 32 16 35 14 48
-10 78 -28 36 -80 36 -108 0z"/>
<path d="M7392 164 c-29 -20 -31 -83 -2 -109 29 -26 79 -24 102 4 54 68 -28
155 -100 105z"/>
<path d="M7667 169 c-28 -16 -40 -58 -27 -90 22 -53 103 -59 129 -10 36 67
-37 138 -102 100z"/>
<path d="M7921 154 c-34 -44 -26 -86 21 -110 37 -19 80 -5 97 32 16 35 14 48
-10 78 -28 36 -80 36 -108 0z"/>
<path d="M8202 164 c-29 -20 -31 -83 -2 -109 29 -26 79 -24 102 4 54 68 -28
155 -100 105z"/>
<path d="M8477 169 c-28 -16 -40 -58 -27 -90 22 -52 104 -58 129 -10 37 67
-36 138 -102 100z"/>
<path d="M8731 154 c-24 -30 -26 -43 -10 -78 17 -37 60 -51 97 -32 47 24 55
66 21 110 -28 36 -80 36 -108 0z"/>
<path d="M9010 160 c-26 -26 -26 -81 0 -105 29 -26 79 -24 102 4 39 50 9 121
-52 121 -17 0 -39 -9 -50 -20z"/>
<path d="M9287 169 c-27 -16 -38 -53 -26 -88 19 -54 102 -61 128 -12 37 67
-36 138 -102 100z"/>
<path d="M9541 154 c-24 -30 -26 -43 -10 -78 17 -37 60 -51 97 -32 47 24 55
66 21 110 -28 36 -80 36 -108 0z"/>
<path d="M9820 160 c-26 -26 -26 -81 0 -105 46 -42 120 -10 120 52 0 42 -30
73 -70 73 -17 0 -39 -9 -50 -20z"/>
<path d="M10097 169 c-27 -16 -38 -53 -26 -88 19 -54 102 -61 128 -12 37 67
-36 138 -102 100z"/>
<path d="M10351 154 c-24 -30 -26 -43 -10 -78 17 -37 60 -51 97 -32 47 24 55
66 21 110 -28 36 -80 36 -108 0z"/>
<path d="M10630 160 c-26 -26 -26 -81 0 -105 46 -42 120 -10 120 52 0 42 -30
73 -70 73 -17 0 -39 -9 -50 -20z"/>
<path d="M10902 164 c-16 -11 -22 -25 -22 -52 0 -45 8 -58 43 -71 73 -28 131
63 74 117 -27 26 -64 28 -95 6z"/>
<path d="M11177 169 c-28 -16 -40 -58 -27 -90 22 -53 103 -59 129 -10 36 67
-37 138 -102 100z"/>
<path d="M11440 160 c-26 -26 -26 -81 0 -105 46 -42 120 -10 120 52 0 42 -30
73 -70 73 -17 0 -39 -9 -50 -20z"/>
<path d="M11712 164 c-29 -20 -31 -83 -2 -109 29 -26 79 -24 102 4 54 68 -28
155 -100 105z"/>
<path d="M11987 169 c-28 -16 -40 -58 -27 -90 22 -53 103 -59 129 -10 36 67
-37 138 -102 100z"/>
<path d="M12250 160 c-26 -26 -26 -81 0 -105 46 -42 120 -10 120 52 0 42 -30
73 -70 73 -17 0 -39 -9 -50 -20z"/>
<path d="M12522 157 c-55 -58 1 -142 77 -116 37 13 56 55 42 92 -19 50 -83 63
-119 24z"/>
</g>
</svg>
